mtllib materials.mtl
v 0.4098251 0.2076196 -0.2466163
v 0.4160669 0.2002422 -0.2192172
v 0.4277904 0.3864022 -0.1717633
v 0.4215486 0.3937796 -0.1991624
v -0.4953319 0.2117732 -0.03929231
v -0.4836084 0.3979332 0.008161634
v -0.4773666 0.3905558 0.03556073
v -0.4890901 0.2043958 -0.01189321
v 0.3822926 0.207746 -0.24031
v 0.2564426 0.2083235 -0.2114844
v 0.1273191 0.208916 -0.181909
v -0.01336787 0.2095616 -0.149685
v -0.1310311 0.2101015 -0.1227345
v -0.2470094 0.2106338 -0.09616998
v -0.3433932 0.211076 -0.07409349
v -0.4290262 0.2114689 -0.05447945
v -0.4748388 0.3978929 0.006152958
v -0.3884943 0.3974968 -0.01362404
v -0.2946004 0.3970659 -0.0351302
v -0.1863067 0.396569 -0.05993462
v -0.07389311 0.3960531 -0.08568266
v 0.05516636 0.3954609 -0.1152434
v 0.1780956 0.3948968 -0.1434001
v 0.3018737 0.3943288 -0.1717511
v 0.3601881 -0.8514167 -0.3926211
v 0.3970596 0.5948115 -0.09349009
v 0.3878034 0.6030915 -0.1323812
v 0.3509319 -0.8431367 -0.4315122
v 0.2147537 -0.8547227 -0.3587111
v 0.2054975 -0.8464426 -0.3976022
v 0.242369 0.5997855 -0.09847113
v 0.2516253 0.5915055 -0.05958
v -0.3227492 -0.8736057 -0.2097681
v -0.2647225 0.5764926 0.06638899
v -0.2715332 0.584286 0.0268968
v -0.32956 -0.8658122 -0.2492603
v -0.469911 -0.8725883 -0.184188
v -0.4767218 -0.8647949 -0.2236802
v -0.418695 0.5853034 0.05247685
v -0.4118843 0.5775099 0.09196904
v -0.4132896 -0.1098467 0.3218149
v -0.419603 -0.1187399 0.2948864
v -0.4310059 0.06448102 0.2370511
v -0.4246925 0.07337415 0.2639797
v 0.47374 0.05483681 0.02811804
v 0.4851428 -0.128384 0.0859533
v 0.4914562 -0.1194909 0.1128819
v 0.4800534 0.06373006 0.05504665
v 0.4137778 0.06443655 0.07035163
v 0.3281837 0.06534892 0.0901179
v 0.2318437 0.06637579 0.1123658
v 0.1159181 0.06761152 0.1391365
v -0.001691704 0.06886518 0.1662961
v -0.1423148 0.07036418 0.1987703
v -0.2713796 0.07173997 0.2285751
v -0.3971724 0.07308084 0.2576245
v -0.293669 -0.1111218 0.294191
v -0.1699472 -0.1124408 0.2656199
v -0.04707379 -0.1137505 0.2372448
v 0.08192703 -0.1151255 0.2074545
v 0.1942896 -0.1163233 0.1815067
v 0.3025341 -0.1174771 0.1565098
v 0.3963853 -0.1184775 0.1348367
v 0.4826906 -0.1193974 0.1149062
v -0.3052146 -0.8472801 0.4431885
v -0.4166637 0.5761691 0.06399658
v -0.4077374 0.5870749 0.1023129
v -0.2962884 -0.8363742 0.4815048
v -0.159893 -0.8450869 0.4087097
v -0.1509668 -0.834181 0.447026
v -0.2624158 0.5892681 0.06783411
v -0.2713421 0.5783622 0.0295178
v 0.3774699 -0.8449504 0.2580737
v 0.2447576 0.5825705 -0.09827873
v 0.2512681 0.5929006 -0.05932155
v 0.3839803 -0.8346202 0.2970309
v 0.5243185 -0.8378918 0.2316609
v 0.5308289 -0.8275616 0.2706181
v 0.3981167 0.5999592 -0.08573437
v 0.3916062 0.5896291 -0.1246915
v 0.4627071 0.3788388 -0.02548406
v 0.4564351 0.3704314 -0.05257791
v 0.4679113 0.186199 0.001934439
v 0.4741834 0.1946065 0.02902821
v -0.4371072 0.1913414 0.2098431
v -0.4485835 0.3755737 0.1553309
v -0.4423114 0.3839812 0.1824247
v -0.4308352 0.1997489 0.2369369
v -0.3645397 0.1993722 0.2217069
v -0.2789198 0.1988856 0.2020377
v -0.1825507 0.1983382 0.1798988
v -0.0665902 0.1976793 0.1532594
v 0.05105504 0.1970108 0.1262329
v 0.1917205 0.1962114 0.09391806
v 0.3208242 0.1954779 0.0642592
v 0.446655 0.1947629 0.03535229
v 0.3430505 0.3795187 0.002004474
v 0.2192914 0.380222 0.03043547
v 0.09638089 0.3809205 0.05867153
v -0.0326588 0.3816536 0.0883157
v -0.1450552 0.3822922 0.1141363
v -0.2533323 0.3829076 0.1390107
v -0.3472118 0.3834409 0.1605775
v -0.4335431 0.3839313 0.1804103
v -0.4922732 0.07193506 -0.05163792
v -0.4857343 0.06517982 -0.02414784
v -0.4975592 -0.1220098 -0.0673342
v -0.5040981 -0.1152545 -0.09482431
v 0.4107077 0.06484848 -0.2681673
v 0.3988828 -0.1223412 -0.3113537
v 0.4054218 -0.1290964 -0.2838636
v 0.4172466 0.05809319 -0.2406772
v -0.4648069 0.07171953 -0.0582242
v -0.3392594 0.07073426 -0.08832973
v -0.2104464 0.06972331 -0.1192183
v -0.07009762 0.06862181 -0.1528731
v 0.04728276 0.06770056 -0.1810203
v 0.1629822 0.06679261 -0.2087643
v 0.2591343 0.06603801 -0.231821
v 0.3445615 0.06536764 -0.2523058
v 0.3901342 -0.1222724 -0.3092558
v 0.3039973 -0.1215965 -0.2886008
v 0.2103292 -0.1208615 -0.2661397
v 0.1022958 -0.1200136 -0.240234
v -0.009847514 -0.1191335 -0.2133427
v -0.1385967 -0.1181231 -0.1824694
v -0.2612304 -0.1171606 -0.1530625
v -0.3847109 -0.1161916 -0.1234526
vn 0.9747478 -0.004472969 -0.2232636
vn -0.9747478 0.004472969 0.2232636
vn -0.0609106 -0.9672135 -0.2465524
vn 0.060911 0.967213 0.2465542
vn -0.2148407 0.253925 -0.9430618
vn 0.2148408 -0.253925 0.9430618
vn -0.2148408 0.253925 -0.9430618
vn -0.2148408 0.253925 -0.9430618
vn -0.2148408 0.253925 -0.9430618
vn -0.2148407 0.253925 -0.9430618
vn -0.2148408 0.253925 -0.9430618
vn -0.2148409 0.2539249 -0.9430618
vn -0.214841 0.2539249 -0.9430618
vn -0.2148405 0.253925 -0.9430618
vn 0.9736391 0.02213235 -0.2270176
vn -0.9736391 -0.02213235 0.2270176
vn 0.2267243 -0.2028134 0.9526085
vn -0.2267243 0.2028134 -0.9526085
vn -0.02495859 -0.9789672 -0.202485
vn 0.02495859 0.9789672 0.202485
vn 0.985204 -0.006810652 -0.1712506
vn -0.985204 0.006810652 0.1712506
vn 0.1668243 -0.1908943 0.9673309
vn -0.1668243 0.1908943 -0.9673309
vn -0.03927876 -0.981587 -0.1869337
vn 0.03927876 0.981587 0.1869337
vn -0.9743042 0.01038566 0.2249966
vn 0.9743043 -0.01038549 -0.2249961
vn -0.05924484 0.9519434 -0.3004895
vn 0.0592444 -0.951944 0.3004876
vn 0.217304 0.3060976 0.9268674
vn -0.2173044 -0.3060979 -0.9268672
vn 0.2173043 0.3060977 0.9268673
vn 0.2173043 0.3060977 0.9268673
vn 0.2173046 0.3060978 0.9268672
vn 0.2173043 0.3060978 0.9268673
vn 0.2173043 0.3060979 0.9268673
vn 0.2173046 0.306098 0.9268671
vn 0.2173046 0.306098 0.9268671
vn 0.2173041 0.3060979 0.9268673
vn -0.9728845 -0.01468267 0.2308251
vn 0.9728845 0.01468267 -0.2308251
vn -0.2186424 -0.2671328 -0.9385284
vn 0.2186424 0.2671328 0.9385284
vn 0.07544091 -0.9635479 0.2566791
vn -0.07544091 0.9635479 -0.2566791
vn -0.9831071 -0.04725538 0.1768258
vn 0.9831071 0.04725538 -0.1768258
vn -0.1594686 -0.2530288 -0.9542255
vn 0.1594686 0.2530288 0.9542255
vn 0.08983418 -0.966304 0.2412188
vn -0.08983418 0.966304 -0.2412188
vn 0.9745977 -0.005537455 -0.2238943
vn -0.9745981 0.005537708 0.2238931
vn 0.05962627 -0.957198 0.2832255
vn -0.05962673 0.9571975 -0.2832273
vn 0.2158786 0.2893799 0.9325534
vn -0.2158786 -0.2893799 -0.9325533
vn 0.2158786 0.2893799 0.9325534
vn 0.2158788 0.28938 0.9325533
vn 0.2158787 0.2893797 0.9325534
vn 0.2158784 0.2893797 0.9325535
vn 0.2158784 0.2893798 0.9325535
vn 0.2158789 0.28938 0.9325533
vn 0.2158778 0.2893797 0.9325536
vn 0.2158794 0.2893801 0.9325531
vn -0.9724044 0.007631288 0.2331772
vn 0.9724044 -0.007631416 -0.2331768
vn 0.06143732 0.9725636 0.2243785
vn -0.06143676 -0.972564 -0.2243763
vn -0.2250668 0.2325132 -0.9461938
vn 0.2250668 -0.2325131 0.9461938
vn -0.2250668 0.2325131 -0.9461938
vn -0.2250668 0.2325132 -0.9461938
vn -0.2250669 0.2325132 -0.9461938
vn -0.225067 0.2325131 -0.9461938
vn -0.2250669 0.2325132 -0.9461938
vn -0.2250669 0.2325132 -0.9461938
vn -0.2250663 0.2325135 -0.9461938
vn -0.2250673 0.2325131 -0.9461937
vt 0.04591079 0.09115074
vt 0.04846149 0.08975973
vt 0.05767654 0.1066574
vt 0.05512584 0.1080484
vt -0.04591078 0.09115074
vt -0.05512584 0.1080484
vt -0.05767653 0.1066574
vt -0.04846148 0.08975972
vt 0.005094144 0.03601654
vt 0.004443883 0.03326783
vt 0.001471569 0.02070359
vt -0.001578058 0.007812546
vt -0.004900791 -0.006232944
vt -0.007679754 -0.01797986
vt -0.01041892 -0.02955855
vt -0.0126953 -0.03918103
vt -0.01471777 -0.04773021
vt -0.01628378 -0.05434984
vt -0.01345648 -0.05501869
vt 0.007921441 0.03534769
vt -0.005093939 0.03601659
vt -0.007921236 0.03534774
vt 0.01345675 -0.05501863
vt 0.01628405 -0.05434977
vt 0.01607693 -0.05347425
vt 0.01403764 -0.04485404
vt 0.01182006 -0.03548015
vt 0.009262381 -0.02466865
vt 0.006607398 -0.01344583
vt 0.003559272 -0.0005611825
vt 0.0006559306 0.01171146
vt -0.002267458 0.02406885
vt -0.07916486 0.07382472
vt -0.0968221 0.08148439
vt -0.1017081 0.07022099
vt -0.08028895 0.07123346
vt 0.07916486 0.07382472
vt 0.1161202 -0.01136563
vt 0.1337775 -0.003705965
vt 0.0968221 0.08148439
vt -0.1017081 0.07022099
vt -0.1067617 0.05857142
vt -0.08542711 0.05938887
vt -0.08028895 0.07123346
vt -0.1067617 0.05857142
vt -0.1117806 0.04700173
vt -0.09069891 0.0472362
vt -0.08542711 0.05938888
vt -0.1117806 0.04700172
vt -0.1170498 0.03485508
vt -0.09644281 0.03399521
vt -0.09069891 0.0472362
vt -0.1170498 0.03485508
vt -0.1216394 0.02427509
vt -0.1012467 0.02292114
vt -0.09644282 0.03399521
vt -0.1216394 0.02427508
vt -0.1260608 0.01408284
vt -0.1059818 0.01200566
vt -0.1012467 0.02292114
vt -0.1260608 0.01408284
vt -0.1298942 0.005245868
vt -0.109917 0.002934331
vt -0.1059818 0.01200566
vt -0.1298942 0.005245871
vt -0.1334194 -0.002880589
vt -0.1134131 -0.005125161
vt -0.109917 0.002934333
vt -0.1334194 -0.002880591
vt -0.1337775 -0.00370596
vt -0.1161202 -0.01136563
vt -0.1134131 -0.005125163
vt 0.005444214 -0.008943285
vt 0.07002516 0.123923
vt 0.06635333 0.1257077
vt 0.001772386 -0.007158558
vt -0.005444215 -0.008943288
vt -0.001772387 -0.00715856
vt -0.06635333 0.1257077
vt -0.07002516 0.123923
vt -0.01860608 0.03007109
vt -0.01288253 0.01627397
vt 0.1235721 0.07288039
vt 0.1178485 0.08667752
vt 0.01860608 0.03007109
vt -0.1178485 0.08667751
vt -0.1235721 0.07288039
vt 0.01288253 0.01627397
vt 0.01553162 0.0324761
vt 0.01152957 0.03328305
vt 0.008577125 0.01864055
vt 0.01257917 0.0178336
vt -0.01553162 0.03247612
vt -0.01257918 0.01783362
vt -0.008577132 0.01864057
vt -0.01152958 0.03328307
vt 0.00807759 -0.01244639
vt 0.08329805 0.1146993
vt 0.07978432 0.1167781
vt 0.004563854 -0.01036763
vt -0.008077592 -0.01244639
vt -0.004563854 -0.01036763
vt -0.07978432 0.1167781
vt -0.08329805 0.1146993
vt 0.008148829 -0.03459924
vt 0.01421292 -0.04825012
vt 0.1492212 0.01172415
vt 0.1431571 0.02537503
vt -0.008148828 -0.03459924
vt -0.1431571 0.02537503
vt -0.1492212 0.01172415
vt -0.01421291 -0.04825012
vt 0.003975141 -0.03715871
vt 2.663052E-05 -0.036121
vt -0.003770059 -0.05056763
vt 0.0001784527 -0.05160533
vt -0.003975148 -0.03715868
vt -0.0001784599 -0.05160531
vt 0.003770052 -0.0505676
vt -2.663645E-05 -0.03612098
vt -0.07363328 0.05120093
vt -0.0707361 0.05098348
vt -0.06929566 0.07017655
vt -0.07219285 0.07039398
vt 0.06929575 0.07017647
vt 0.07073617 0.05098342
vt 0.07363336 0.05120085
vt 0.07219294 0.07039391
vt -0.0764382 -0.05423943
vt -0.07296064 0.03855614
vt -0.07586394 0.03866494
vt -0.07611868 0.03186737
vt -0.07644767 0.02308838
vt -0.07681797 0.01320723
vt -0.07726356 0.001317282
vt -0.07771562 -0.01074541
vt -0.07825614 -0.02516846
vt -0.07875221 -0.03840604
vt -0.07923573 -0.05130802
vt -0.0793415 -0.05413062
vt 0.07888158 -0.04186179
vt 0.07840604 -0.02917222
vt 0.07793377 -0.01656966
vt 0.07743794 -0.003338642
vt 0.07700606 0.00818586
vt 0.07659002 0.019288
vt 0.07622929 0.02891388
vt 0.07589757 0.03776581
vt 0.07586388 0.03866486
vt 0.07296058 0.03855607
vt 0.07643805 -0.0542395
vt 0.07934134 -0.05413071
vt 0.08219951 -0.0195797
vt 0.06075687 -0.019721
vt 0.06624179 -0.03070523
vt 0.08346137 -0.02210675
vt -0.06624179 -0.03070527
vt -0.02475686 0.05237368
vt -0.04197644 0.06097217
vt -0.08346138 -0.02210679
vt 0.08219951 -0.01957973
vt 0.07643159 -0.008028705
vt 0.0550839 -0.008360179
vt 0.06075687 -0.01972102
vt 0.07643159 -0.008028709
vt 0.07051364 0.003822755
vt 0.04944985 0.00292276
vt 0.05508391 -0.008360183
vt 0.07051365 0.003822741
vt 0.06406571 0.01673556
vt 0.04353484 0.01476835
vt 0.04944985 0.002922745
vt 0.0640657 0.01673558
vt 0.05867299 0.02753518
vt 0.03838271 0.02508613
vt 0.04353483 0.01476836
vt 0.05867299 0.02753518
vt 0.0533575 0.03818013
vt 0.03341942 0.03502576
vt 0.0383827 0.02508613
vt 0.0533575 0.03818011
vt 0.04894007 0.0470266
vt 0.0291161 0.04364369
vt 0.03341942 0.03502574
vt 0.04894007 0.0470266
vt 0.04501536 0.05488634
vt 0.02515879 0.05156874
vt 0.0291161 0.04364368
vt 0.04501536 0.05488638
vt 0.04197645 0.06097218
vt 0.02475685 0.05237369
vt 0.02515878 0.05156878
vt -0.07025864 -0.02249589
vt -0.06521271 0.1251479
vt -0.06929292 0.1252873
vt -0.07433885 -0.02235645
vt 0.07025864 -0.02249589
vt 0.07433885 -0.02235645
vt 0.06929292 0.1252873
vt 0.06521271 0.1251479
vt 0.001698557 -0.05501235
vt 0.008037163 -0.04148675
vt -0.125732 0.02120254
vt -0.1320707 0.007676943
vt -0.001698559 -0.05501235
vt 0.1320706 0.007676938
vt 0.125732 0.02120254
vt -0.008037164 -0.04148675
vt 0.07022654 -0.04797431
vt 0.07430862 -0.04790892
vt 0.07406941 -0.03297365
vt 0.06998734 -0.03303903
vt -0.07022655 -0.04797433
vt -0.06998734 -0.03303906
vt -0.07406942 -0.03297367
vt -0.07430862 -0.04790895
vt -0.06271253 -0.03194791
vt -0.07949147 0.1148261
vt -0.08354764 0.1143624
vt -0.0667687 -0.03241161
vt 0.06271253 -0.03194791
vt 0.06676871 -0.03241161
vt 0.08354764 0.1143624
vt 0.07949147 0.1148261
vt 0.03279964 0.01299163
vt 0.03890833 0.02662261
vt -0.09590313 0.08703805
vt -0.1020118 0.07340706
vt -0.03279964 0.01299163
vt 0.1020118 0.07340706
vt 0.09590313 0.08703804
vt -0.03890833 0.02662261
vt 0.06714183 0.02186262
vt 0.07121908 0.02165373
vt 0.07198333 0.03657136
vt 0.06790608 0.03678025
vt -0.06714184 0.0218626
vt -0.06790609 0.03678023
vt -0.07198333 0.03657134
vt -0.07121908 0.02165371
vt 0.07194226 0.1024729
vt 0.06904098 0.1023195
vt 0.07005773 0.08309929
vt 0.07295902 0.08325277
vt -0.07005788 0.08309915
vt -0.06904118 0.1023193
vt -0.07194246 0.1024728
vt -0.07295917 0.08325263
vt 0.0733775 0.03814118
vt 0.07580586 -0.05468777
vt 0.0787102 -0.05461179
vt 0.07853232 -0.04781177
vt 0.07830258 -0.03902962
vt 0.078044 -0.02914492
vt 0.07773286 -0.0172507
vt 0.07741719 -0.005183671
vt 0.07703976 0.009244574
vt 0.07669334 0.02248691
vt 0.07635571 0.03539354
vt 0.07628185 0.03821716
vt -0.0766031 0.0259439
vt -0.07693519 0.01324977
vt -0.07726499 0.000642677
vt -0.07761125 -0.0125931
vt -0.07791283 -0.02412174
vt -0.07820338 -0.03522787
vt -0.07845528 -0.04485721
vt -0.07868694 -0.05371233
vt -0.07871047 -0.05461171
vt -0.07580613 -0.05468769
vt -0.07337768 0.03814126
vt -0.07628202 0.03821724
vt 0.05626899 0.06506943
vt 0.07771201 0.06512766
vt 0.07226969 0.07613307
vt 0.05501692 0.06760135
vt -0.07226969 0.07613308
vt -0.1134325 -0.007105942
vt -0.09617974 -0.01563766
vt -0.05501692 0.06760135
vt 0.05626899 0.06506943
vt 0.06199213 0.05349616
vt 0.08334094 0.05374493
vt 0.07771201 0.06512767
vt 0.06199213 0.05349613
vt 0.06786413 0.04162183
vt 0.08893127 0.04244024
vt 0.08334094 0.05374491
vt 0.06786414 0.04162185
vt 0.07426202 0.02868416
vt 0.09480037 0.03057184
vt 0.08893128 0.04244026
vt 0.07426201 0.02868419
vt 0.07961286 0.01786377
vt 0.09991246 0.02023422
vt 0.09480035 0.03057186
vt 0.07961284 0.01786377
vt 0.08488706 0.007198312
vt 0.1048372 0.01027543
vt 0.09991245 0.02023421
vt 0.08488707 0.007198264
vt 0.08927019 -0.001665283
vt 0.1091071 0.001640824
vt 0.1048372 0.01027538
vt 0.08927017 -0.001665192
vt 0.09316442 -0.009540073
vt 0.1130337 -0.006299406
vt 0.1091071 0.001640915
vt 0.09316445 -0.009540202
vt 0.09617977 -0.01563773
vt 0.1134325 -0.007106005
vt 0.1130337 -0.006299535
vt -0.03916895 0.07867735
vt -0.04177792 0.07739896
vt -0.03330893 0.0601153
vt -0.03069997 0.0613937
vt 0.03916903 0.07867731
vt 0.03070004 0.06139366
vt 0.03330901 0.06011527
vt 0.04177799 0.07739891
vt 0.01148085 -0.05531263
vt 0.0108797 -0.05255276
vt 0.008131872 -0.03993752
vt 0.005312569 -0.02699416
vt 0.002240784 -0.01289165
vt -0.000328291 -0.001097056
vt -0.002860579 0.01052863
vt -0.004965042 0.02019018
vt -0.006834772 0.02877405
vt -0.008282498 0.03542055
vt -0.01112127 0.03480221
vt 0.008642077 -0.05593096
vt -0.01148066 -0.05531266
vt -0.008641886 -0.055931
vt 0.01112138 0.03480219
vt 0.008282606 0.03542053
vt 0.008091127 0.03454145
vt 0.006205872 0.02588626
vt 0.004155789 0.01647431
vt 0.001791295 0.005618918
vt -0.0006631523 -0.005649451
vt -0.003481043 -0.01858641
vt -0.006165091 -0.03090887
vt -0.008867668 -0.04331642
vt -0.103255 -0.01591891
vt -0.08566741 -0.02373709
vt -0.08068024 -0.01251811
vt -0.1021077 -0.01333786
vt 0.103255 -0.01591891
vt 0.06553484 0.06893559
vt 0.04794723 0.06111741
vt 0.08566741 -0.0237371
vt -0.08068024 -0.0125181
vt -0.0755221 -0.0009144514
vt -0.0968632 -0.001539968
vt -0.1021077 -0.01333786
vt -0.0755221 -0.0009144541
vt -0.07039933 0.01060962
vt -0.0914823 0.01056478
vt -0.0968632 -0.001539971
vt -0.07039933 0.01060962
vt -0.0650211 0.02270838
vt -0.0856195 0.02375357
vt -0.0914823 0.01056478
vt -0.0650211 0.02270839
vt -0.06033654 0.03324667
vt -0.08071618 0.03478399
vt -0.0856195 0.02375358
vt -0.06033654 0.03324667
vt -0.05582366 0.04339873
vt -0.07588308 0.04565644
vt -0.08071618 0.03478399
vt -0.05582366 0.04339873
vt -0.05191088 0.05220086
vt -0.07186652 0.054692
vt -0.07588308 0.04565644
vt -0.05191088 0.05220087
vt -0.04831269 0.06029529
vt -0.06829798 0.06271972
vt -0.07186652 0.05469201
vt -0.04831269 0.06029528
vt -0.04794724 0.0611174
vt -0.06553485 0.06893559
vt -0.06829799 0.06271972
o group1969675137
g mesh1969675137
usemtl mat21
f 4/4/1 3/3/1 2/2/1 1/1/1
f 8/8/2 7/7/2 6/6/2 5/5/2
f 2/20/3 8/19/3 5/18/3 16/17/3 15/16/3 14/15/3 13/14/3 12/13/3 11/12/3 10/11/3 9/10/3 1/9/3
f 24/32/4 23/31/4 22/30/4 21/29/4 20/28/4 19/27/4 18/26/4 17/25/4 6/24/4 7/23/4 3/22/4 4/21/4
f 3/40/6 7/39/6 8/38/6 2/37/6
usemtl mat23
f 9/36/5 24/35/5 4/34/5 1/33/5
f 10/48/8 11/47/8 22/46/8 23/45/8
f 12/56/10 13/55/10 20/54/10 21/53/10
f 14/64/12 15/63/12 18/62/12 19/61/12
f 16/72/14 5/71/14 6/70/14 17/69/14
usemtl mat12
f 9/44/7 10/43/7 23/42/7 24/41/7
f 11/52/9 12/51/9 21/50/9 22/49/9
f 13/60/11 14/59/11 19/58/11 20/57/11
f 15/68/13 16/67/13 17/66/13 18/65/13
o group1176710984
g mesh1176710984
usemtl mat21
f 28/76/15 27/75/15 26/74/15 25/73/15
f 32/80/16 31/79/16 30/78/16 29/77/16
f 26/84/17 32/83/17 29/82/17 25/81/17
f 30/88/18 31/87/18 27/86/18 28/85/18
f 29/92/19 30/91/19 28/90/19 25/89/19
f 27/96/20 31/95/20 32/94/20 26/93/20
o group790830455
g mesh790830455
usemtl mat21
f 36/100/21 35/99/21 34/98/21 33/97/21
f 40/104/22 39/103/22 38/102/22 37/101/22
f 34/108/23 40/107/23 37/106/23 33/105/23
f 38/112/24 39/111/24 35/110/24 36/109/24
f 37/116/25 38/115/25 36/114/25 33/113/25
f 35/120/26 39/119/26 40/118/26 34/117/26
o group1899794681
g mesh1899794681
usemtl mat21
f 44/124/27 43/123/27 42/122/27 41/121/27
f 48/128/28 47/127/28 46/126/28 45/125/28
f 44/140/29 56/139/29 55/138/29 54/137/29 53/136/29 52/135/29 51/134/29 50/133/29 49/132/29 48/131/29 45/130/29 43/129/29
f 41/152/30 42/151/30 46/150/30 47/149/30 64/148/30 63/147/30 62/146/30 61/145/30 60/144/30 59/143/30 58/142/30 57/141/30
f 43/160/32 45/159/32 46/158/32 42/157/32
usemtl mat23
f 44/156/31 41/155/31 57/154/31 56/153/31
f 58/168/34 59/167/34 54/166/34 55/165/34
f 60/176/36 61/175/36 52/174/36 53/173/36
f 62/184/38 63/183/38 50/182/38 51/181/38
f 64/192/40 47/191/40 48/190/40 49/189/40
usemtl mat12
f 57/164/33 58/163/33 55/162/33 56/161/33
f 59/172/35 60/171/35 53/170/35 54/169/35
f 61/180/37 62/179/37 51/178/37 52/177/37
f 63/188/39 64/187/39 49/186/39 50/185/39
o group56958267
g mesh56958267
usemtl mat21
f 68/196/41 67/195/41 66/194/41 65/193/41
f 72/200/42 71/199/42 70/198/42 69/197/42
f 66/204/43 72/203/43 69/202/43 65/201/43
f 70/208/44 71/207/44 67/206/44 68/205/44
f 69/212/45 70/211/45 68/210/45 65/209/45
f 67/216/46 71/215/46 72/214/46 66/213/46
o group2019904400
g mesh2019904400
usemtl mat21
f 76/220/47 75/219/47 74/218/47 73/217/47
f 80/224/48 79/223/48 78/222/48 77/221/48
f 74/228/49 80/227/49 77/226/49 73/225/49
f 78/232/50 79/231/50 75/230/50 76/229/50
f 77/236/51 78/235/51 76/234/51 73/233/51
f 75/240/52 79/239/52 80/238/52 74/237/52
o group1273453722
g mesh1273453722
usemtl mat21
f 84/244/53 83/243/53 82/242/53 81/241/53
f 88/248/54 87/247/54 86/246/54 85/245/54
f 84/260/55 96/259/55 95/258/55 94/257/55 93/256/55 92/255/55 91/254/55 90/253/55 89/252/55 88/251/55 85/250/55 83/249/55
f 81/272/56 82/271/56 86/270/56 87/269/56 104/268/56 103/267/56 102/266/56 101/265/56 100/264/56 99/263/56 98/262/56 97/261/56
f 83/280/58 85/279/58 86/278/58 82/277/58
usemtl mat23
f 84/276/57 81/275/57 97/274/57 96/273/57
f 98/288/60 99/287/60 94/286/60 95/285/60
f 100/296/62 101/295/62 92/294/62 93/293/62
f 102/304/64 103/303/64 90/302/64 91/301/64
f 104/312/66 87/311/66 88/310/66 89/309/66
usemtl mat12
f 97/284/59 98/283/59 95/282/59 96/281/59
f 99/292/61 100/291/61 93/290/61 94/289/61
f 101/300/63 102/299/63 91/298/63 92/297/63
f 103/308/65 104/307/65 89/306/65 90/305/65
o group1038710627
g mesh1038710627
usemtl mat21
f 108/316/67 107/315/67 106/314/67 105/313/67
f 112/320/68 111/319/68 110/318/68 109/317/68
f 106/332/69 112/331/69 109/330/69 120/329/69 119/328/69 118/327/69 117/326/69 116/325/69 115/324/69 114/323/69 113/322/69 105/321/69
f 128/344/70 127/343/70 126/342/70 125/341/70 124/340/70 123/339/70 122/338/70 121/337/70 110/336/70 111/335/70 107/334/70 108/333/70
f 107/352/72 111/351/72 112/350/72 106/349/72
usemtl mat23
f 113/348/71 128/347/71 108/346/71 105/345/71
f 114/360/74 115/359/74 126/358/74 127/357/74
f 116/368/76 117/367/76 124/366/76 125/365/76
f 118/376/78 119/375/78 122/374/78 123/373/78
f 120/384/80 109/383/80 110/382/80 121/381/80
usemtl mat12
f 113/356/73 114/355/73 127/354/73 128/353/73
f 115/364/75 116/363/75 125/362/75 126/361/75
f 117/372/77 118/371/77 123/370/77 124/369/77
f 119/380/79 120/379/79 121/378/79 122/377/79
